<mxfile host="app.diagrams.net" modified="2022-07-10T16:02:57.200Z" agent="5.0 (Windows NT 10.0; Win64; x64) AppleWebKit/537.36 (KHTML, like Gecko) Chrome/76.0.3809.87 Safari/537.36" etag="tcmk_QMMQe67j15hnGkv" version="20.0.4" type="github">
  <diagram id="t0AepnxIoXH7IDjTjGjX" name="Page-1">
    <mxGraphModel dx="1028" dy="571" grid="1" gridSize="10" guides="1" tooltips="1" connect="1" arrows="1" fold="1" page="1" pageScale="1" pageWidth="827" pageHeight="1169" math="0" shadow="0">
      <root>
        <mxCell id="0" />
        <mxCell id="1" parent="0" />
        <mxCell id="7B1-mNm-IAQRKR18Ugdj-24" value="" style="rounded=0;whiteSpace=wrap;html=1;fontSize=14;" vertex="1" parent="1">
          <mxGeometry x="610" y="340" width="430" height="540" as="geometry" />
        </mxCell>
        <mxCell id="7B1-mNm-IAQRKR18Ugdj-23" value="" style="rounded=0;whiteSpace=wrap;html=1;fontSize=14;" vertex="1" parent="1">
          <mxGeometry x="220" y="340" width="350" height="540" as="geometry" />
        </mxCell>
        <mxCell id="7B1-mNm-IAQRKR18Ugdj-19" style="edgeStyle=orthogonalEdgeStyle;rounded=0;orthogonalLoop=1;jettySize=auto;html=1;exitX=0.5;exitY=0;exitDx=0;exitDy=0;exitPerimeter=0;entryX=0.5;entryY=1;entryDx=0;entryDy=0;entryPerimeter=0;fontSize=14;" edge="1" parent="1" source="7B1-mNm-IAQRKR18Ugdj-1" target="7B1-mNm-IAQRKR18Ugdj-3">
          <mxGeometry relative="1" as="geometry" />
        </mxCell>
        <mxCell id="7B1-mNm-IAQRKR18Ugdj-1" value="" style="shape=cylinder3;whiteSpace=wrap;html=1;boundedLbl=1;backgroundOutline=1;size=15;fillColor=#f8cecc;strokeColor=#b85450;" vertex="1" parent="1">
          <mxGeometry x="263" y="669" width="130" height="140" as="geometry" />
        </mxCell>
        <mxCell id="7B1-mNm-IAQRKR18Ugdj-2" value="&lt;font style=&quot;font-size: 14px;&quot;&gt;&lt;b&gt;营销Oracle生产库&lt;/b&gt;&lt;/font&gt;" style="text;html=1;strokeColor=none;fillColor=none;align=left;verticalAlign=middle;whiteSpace=wrap;rounded=0;" vertex="1" parent="1">
          <mxGeometry x="268" y="702" width="120" height="30" as="geometry" />
        </mxCell>
        <mxCell id="7B1-mNm-IAQRKR18Ugdj-25" style="edgeStyle=orthogonalEdgeStyle;rounded=0;orthogonalLoop=1;jettySize=auto;html=1;entryX=0;entryY=0.5;entryDx=0;entryDy=0;fontSize=14;" edge="1" parent="1" target="7B1-mNm-IAQRKR18Ugdj-8">
          <mxGeometry relative="1" as="geometry">
            <mxPoint x="390" y="467" as="sourcePoint" />
          </mxGeometry>
        </mxCell>
        <mxCell id="7B1-mNm-IAQRKR18Ugdj-3" value="" style="shape=cylinder3;whiteSpace=wrap;html=1;boundedLbl=1;backgroundOutline=1;size=15;fillColor=#f8cecc;strokeColor=#b85450;" vertex="1" parent="1">
          <mxGeometry x="263" y="429" width="130" height="140" as="geometry" />
        </mxCell>
        <mxCell id="7B1-mNm-IAQRKR18Ugdj-4" value="&lt;font style=&quot;font-size: 14px;&quot;&gt;&lt;b&gt;营销Oracle中间库&lt;/b&gt;&lt;/font&gt;" style="text;html=1;strokeColor=none;fillColor=none;align=left;verticalAlign=middle;whiteSpace=wrap;rounded=0;" vertex="1" parent="1">
          <mxGeometry x="268" y="462" width="120" height="30" as="geometry" />
        </mxCell>
        <mxCell id="7B1-mNm-IAQRKR18Ugdj-21" style="edgeStyle=orthogonalEdgeStyle;rounded=0;orthogonalLoop=1;jettySize=auto;html=1;exitX=1;exitY=0.5;exitDx=0;exitDy=0;entryX=0;entryY=0.5;entryDx=0;entryDy=0;fontSize=14;" edge="1" parent="1" source="7B1-mNm-IAQRKR18Ugdj-8" target="7B1-mNm-IAQRKR18Ugdj-12">
          <mxGeometry relative="1" as="geometry" />
        </mxCell>
        <mxCell id="7B1-mNm-IAQRKR18Ugdj-8" value="源端OGG" style="rounded=0;whiteSpace=wrap;html=1;fontSize=14;" vertex="1" parent="1">
          <mxGeometry x="465" y="442" width="80" height="50" as="geometry" />
        </mxCell>
        <mxCell id="7B1-mNm-IAQRKR18Ugdj-18" style="edgeStyle=orthogonalEdgeStyle;rounded=0;orthogonalLoop=1;jettySize=auto;html=1;exitX=1;exitY=0.5;exitDx=0;exitDy=0;fontSize=14;" edge="1" parent="1" source="7B1-mNm-IAQRKR18Ugdj-12" target="7B1-mNm-IAQRKR18Ugdj-13">
          <mxGeometry relative="1" as="geometry" />
        </mxCell>
        <mxCell id="7B1-mNm-IAQRKR18Ugdj-12" value="目标端OGG" style="rounded=0;whiteSpace=wrap;html=1;fontSize=14;" vertex="1" parent="1">
          <mxGeometry x="667" y="442" width="80" height="50" as="geometry" />
        </mxCell>
        <mxCell id="7B1-mNm-IAQRKR18Ugdj-13" value="&lt;font style=&quot;font-size: 14px;&quot;&gt;&lt;b&gt;Datahub&lt;/b&gt;&lt;/font&gt;" style="shape=cylinder3;whiteSpace=wrap;html=1;boundedLbl=1;backgroundOutline=1;size=15;fillColor=#fff2cc;strokeColor=#d6b656;rotation=0;direction=south;" vertex="1" parent="1">
          <mxGeometry x="810" y="448.5" width="160" height="37" as="geometry" />
        </mxCell>
        <mxCell id="7B1-mNm-IAQRKR18Ugdj-15" value="" style="shape=cylinder3;whiteSpace=wrap;html=1;boundedLbl=1;backgroundOutline=1;size=15;fillColor=#d5e8d4;strokeColor=#82b366;" vertex="1" parent="1">
          <mxGeometry x="810" y="630" width="200" height="230" as="geometry" />
        </mxCell>
        <mxCell id="7B1-mNm-IAQRKR18Ugdj-16" value="&lt;font style=&quot;font-size: 14px;&quot;&gt;&lt;b&gt;MaxCompute&lt;/b&gt;&lt;/font&gt;" style="text;html=1;strokeColor=none;fillColor=none;align=left;verticalAlign=middle;whiteSpace=wrap;rounded=0;" vertex="1" parent="1">
          <mxGeometry x="859" y="733" width="120" height="30" as="geometry" />
        </mxCell>
        <mxCell id="7B1-mNm-IAQRKR18Ugdj-46" style="edgeStyle=orthogonalEdgeStyle;rounded=0;orthogonalLoop=1;jettySize=auto;html=1;fontSize=18;" edge="1" parent="1" source="7B1-mNm-IAQRKR18Ugdj-26" target="7B1-mNm-IAQRKR18Ugdj-45">
          <mxGeometry relative="1" as="geometry">
            <Array as="points">
              <mxPoint x="490" y="522" />
              <mxPoint x="490" y="795" />
            </Array>
          </mxGeometry>
        </mxCell>
        <mxCell id="7B1-mNm-IAQRKR18Ugdj-26" value="&lt;span&gt;归档流程环节表&lt;br&gt;在途流程已办环节表&lt;br&gt;在途待办环节表&lt;/span&gt;" style="rounded=0;whiteSpace=wrap;html=1;fontSize=14;" vertex="1" parent="1">
          <mxGeometry x="263" y="492" width="130" height="60" as="geometry" />
        </mxCell>
        <mxCell id="7B1-mNm-IAQRKR18Ugdj-27" value="&lt;span&gt;归档流程环节表&lt;br&gt;在途流程已办环节表&lt;br&gt;在途待办环节表&lt;/span&gt;" style="rounded=0;whiteSpace=wrap;html=1;fontSize=14;" vertex="1" parent="1">
          <mxGeometry x="263" y="732" width="130" height="60" as="geometry" />
        </mxCell>
        <mxCell id="7B1-mNm-IAQRKR18Ugdj-29" value="&lt;span style=&quot;color: rgb(0, 0, 0); font-family: Helvetica; font-style: normal; font-variant-ligatures: normal; font-variant-caps: normal; font-weight: 400; letter-spacing: normal; orphans: 2; text-align: center; text-indent: 0px; text-transform: none; widows: 2; word-spacing: 0px; -webkit-text-stroke-width: 0px; background-color: rgb(248, 249, 250); text-decoration-style: initial; text-decoration-color: initial; float: none; display: inline !important;&quot;&gt;&lt;font style=&quot;font-size: 18px;&quot;&gt;1&lt;/font&gt;&lt;/span&gt;" style="text;whiteSpace=wrap;html=1;fontSize=14;" vertex="1" parent="1">
          <mxGeometry x="330" y="602" width="20" height="30" as="geometry" />
        </mxCell>
        <mxCell id="7B1-mNm-IAQRKR18Ugdj-31" value="&lt;font style=&quot;font-size: 18px;&quot;&gt;2&lt;/font&gt;" style="text;html=1;align=center;verticalAlign=middle;resizable=0;points=[];autosize=1;strokeColor=none;fillColor=none;fontSize=14;" vertex="1" parent="1">
          <mxGeometry x="414" y="435" width="30" height="40" as="geometry" />
        </mxCell>
        <mxCell id="7B1-mNm-IAQRKR18Ugdj-32" value="&lt;font style=&quot;font-size: 18px;&quot;&gt;3&lt;/font&gt;" style="text;html=1;align=center;verticalAlign=middle;resizable=0;points=[];autosize=1;strokeColor=none;fillColor=none;fontSize=14;" vertex="1" parent="1">
          <mxGeometry x="572" y="435" width="30" height="40" as="geometry" />
        </mxCell>
        <mxCell id="7B1-mNm-IAQRKR18Ugdj-33" value="&lt;font style=&quot;font-size: 18px;&quot;&gt;4&lt;/font&gt;" style="text;html=1;align=center;verticalAlign=middle;resizable=0;points=[];autosize=1;strokeColor=none;fillColor=none;fontSize=14;" vertex="1" parent="1">
          <mxGeometry x="770" y="435" width="30" height="40" as="geometry" />
        </mxCell>
        <mxCell id="7B1-mNm-IAQRKR18Ugdj-34" value="&lt;font style=&quot;font-size: 18px;&quot;&gt;5&lt;/font&gt;" style="text;html=1;align=center;verticalAlign=middle;resizable=0;points=[];autosize=1;strokeColor=none;fillColor=none;fontSize=14;" vertex="1" parent="1">
          <mxGeometry x="910" y="535" width="30" height="40" as="geometry" />
        </mxCell>
        <mxCell id="7B1-mNm-IAQRKR18Ugdj-35" value="&lt;font style=&quot;font-size: 18px;&quot;&gt;&lt;b&gt;云下源端系统&lt;/b&gt;&lt;/font&gt;" style="text;html=1;align=center;verticalAlign=middle;resizable=0;points=[];autosize=1;strokeColor=none;fillColor=none;fontSize=14;" vertex="1" parent="1">
          <mxGeometry x="330" y="341" width="130" height="40" as="geometry" />
        </mxCell>
        <mxCell id="7B1-mNm-IAQRKR18Ugdj-36" value="&lt;font style=&quot;font-size: 18px;&quot;&gt;&lt;b&gt;云上数据中台&lt;/b&gt;&lt;/font&gt;" style="text;html=1;align=center;verticalAlign=middle;resizable=0;points=[];autosize=1;strokeColor=none;fillColor=none;fontSize=14;" vertex="1" parent="1">
          <mxGeometry x="733" y="340" width="130" height="40" as="geometry" />
        </mxCell>
        <mxCell id="7B1-mNm-IAQRKR18Ugdj-37" value="&lt;span&gt;归档流程环节表增量数据&lt;br&gt;在途流程已办环节表&lt;/span&gt;增量数据&lt;span&gt;&lt;br&gt;在途待办环节表&lt;/span&gt;增量数据" style="rounded=0;whiteSpace=wrap;html=1;fontSize=14;" vertex="1" parent="1">
          <mxGeometry x="810" y="662" width="200" height="60" as="geometry" />
        </mxCell>
        <mxCell id="7B1-mNm-IAQRKR18Ugdj-38" value="&lt;span&gt;归档流程环节表T+1数据&lt;br&gt;在途流程已办环节表&lt;/span&gt;T+1数据&lt;span&gt;&lt;br&gt;在途待办环节表&lt;/span&gt;T+1数据" style="rounded=0;whiteSpace=wrap;html=1;fontSize=14;" vertex="1" parent="1">
          <mxGeometry x="810" y="777" width="200" height="60" as="geometry" />
        </mxCell>
        <mxCell id="7B1-mNm-IAQRKR18Ugdj-42" value="6" style="text;html=1;align=center;verticalAlign=middle;resizable=0;points=[];autosize=1;strokeColor=none;fillColor=none;fontSize=18;" vertex="1" parent="1">
          <mxGeometry x="683" y="737" width="30" height="40" as="geometry" />
        </mxCell>
        <mxCell id="7B1-mNm-IAQRKR18Ugdj-43" style="edgeStyle=orthogonalEdgeStyle;rounded=0;orthogonalLoop=1;jettySize=auto;html=1;fontSize=18;" edge="1" parent="1" target="7B1-mNm-IAQRKR18Ugdj-37">
          <mxGeometry relative="1" as="geometry">
            <mxPoint x="910" y="485.5" as="sourcePoint" />
          </mxGeometry>
        </mxCell>
        <mxCell id="7B1-mNm-IAQRKR18Ugdj-47" style="edgeStyle=orthogonalEdgeStyle;rounded=0;orthogonalLoop=1;jettySize=auto;html=1;entryX=0;entryY=0;entryDx=0;entryDy=165;entryPerimeter=0;fontSize=18;" edge="1" parent="1" source="7B1-mNm-IAQRKR18Ugdj-45" target="7B1-mNm-IAQRKR18Ugdj-15">
          <mxGeometry relative="1" as="geometry" />
        </mxCell>
        <mxCell id="7B1-mNm-IAQRKR18Ugdj-45" value="&lt;font style=&quot;font-size: 18px;&quot;&gt;&lt;b&gt;Datawork&lt;br&gt;DI&lt;/b&gt;&lt;/font&gt;" style="rounded=1;whiteSpace=wrap;html=1;fillColor=#f5f5f5;strokeColor=#666666;fontColor=#333333;" vertex="1" parent="1">
          <mxGeometry x="648" y="770" width="100" height="50" as="geometry" />
        </mxCell>
      </root>
    </mxGraphModel>
  </diagram>
</mxfile>
